<?xml version="1.0" encoding="UTF-8"?>
<svg xmlns="http://www.w3.org/2000/svg" xmlns:xlink="http://www.w3.org/1999/xlink" xmlns:svgjs="http://svgjs.com/svgjs" version="1.1" width="512" height="512" x="0" y="0" viewBox="0 0 512 512" style="enable-background:new 0 0 512 512" xml:space="preserve" class="">
  <g>
    <path d="M488.5 400.913h-465V94c0-11.046 8.954-20 20-20h425c11.046 0 20 8.954 20 20v306.913z" style="" fill="#bd00ff" data-original="#737380" class="" opacity="1"/>
    <path d="M58.5 74v39l7.097 58.5L58.5 230v38l5.026 26-5.026 26v80.91h-35V94c0-11.05 8.95-20 20-20h15z" style="" fill="#bd00ff" data-original="#68687c" class="" opacity="1"/>
    <path d="M448.5 109H213.518l-25.403 1.937-12.212 1.318a5 5 0 0 0-5 5l1.8 196.745a5 5 0 0 0 5 5l34.765 3.56c.408 0 .646 1.415 1.051 1.44 6.221.379 11.937 3.682 15.42 8.906l8.125 12.188A20 20 0 0 0 253.705 354h115.593a20 20 0 0 0 16.641-8.906l8.125-12.188A20 20 0 0 1 410.705 324H448.5a5 5 0 0 0 5-5V114a5 5 0 0 0-5-5z" style="" fill="#00ff9f" data-original="#a8ebff" class="" opacity="1"/>
    <path d="M213.518 109v215H173.5c-2.76 0-5-2.24-5-5V114c0-2.76 2.24-5 5-5h40.018z" style="" fill="#00ff9f" data-original="#73e6f9" class="" opacity="1"/>
    <path d="M480.974 438H443.5l-6.845-4.475L428.5 438h-15l-6.845-4.475L398.5 438h-15l-6.845-4.475L368.5 438h-15l-6.845-4.475L338.5 438h-15l-6.845-4.475L308.5 438h-15l-6.845-4.475L278.5 438h-15l-6.845-4.475L248.5 438h-170l-44.688-2.724a7 7 0 0 1-5.625-2.833l-15.861-19.359a7 7 0 0 1-1.375-4.167l-.507-19.015a3 3 0 0 1 3-3L58.5 384h443a3 3 0 0 1 3 3v21.69c0 1.5-.482 2.961-1.375 4.167l-16.526 22.31a7 7 0 0 1-5.625 2.833z" style="" fill="#bd00ff" data-original="#68687c" class="" opacity="1"/>
    <path d="M78.5 438H31.03a7.01 7.01 0 0 1-5.63-2.83L8.88 412.86a6.979 6.979 0 0 1-1.38-4.17V387c0-1.66 1.34-3 3-3h48v23.7c0 2.14.69 4.23 1.96 5.95L78.5 438z" style="" fill="#bd00ff" data-original="#5d5d74" class="" opacity="1"/>
    <path d="M62.5 234h72a4 4 0 0 0 4-4V113a4 4 0 0 0-4-4h-72a4 4 0 0 0-4 4v117a4 4 0 0 0 4 4z" style="" fill="#00ff9f" data-original="#a8ebff" class="" opacity="1"/>
    <path d="M421.5 234H213.518l-11.145-2.5a2 2 0 0 1-2-2l-.753-86.751a2 2 0 0 1 2-2L213.518 139H421.5a2 2 0 0 1 2 2v91a2 2 0 0 1-2 2z" style="" fill="#00b8ff" data-original="#f4f8f9" class="" opacity="1"/>
    <path d="M62.5 324h72a4 4 0 0 0 4-4v-52a4 4 0 0 0-4-4h-72a4 4 0 0 0-4 4v52a4 4 0 0 0 4 4zM421.5 264H213.518l-11.333 1.455a2 2 0 0 0-2 2v23.623a2 2 0 0 0 2 2l11.333.922H421.5a2 2 0 0 0 2-2v-26a2 2 0 0 0-2-2z" style="" fill="#00b8ff" data-original="#ff82ff" class="" opacity="1"/>
    <path d="M213.518 139v95H200.5c-1.1 0-2-.9-2-2v-91c0-1.1.9-2 2-2h13.018z" style="" fill="#00b8ff" data-original="#e7edf3" class="" opacity="1"/>
    <path d="M213.518 264v30H200.5c-1.1 0-2-.9-2-2v-26c0-1.1.9-2 2-2h13.018z" style="" fill="#00b8ff" data-original="#ff64f4" class="" opacity="1"/>
    <path d="M488.5 258.999V384M23.5 384V94c0-11.046 8.954-20 20-20h425c11.046 0 20 8.954 20 20v128.999" style="stroke-width:15;stroke-linecap:round;stroke-linejoin:round;stroke-miterlimit:10;" fill="none" stroke="#000000" stroke-width="15" stroke-linecap="round" stroke-linejoin="round" stroke-miterlimit="10" data-original="#000000"/>
    <path d="M333.5 354h35.796a20 20 0 0 0 16.641-8.906l8.125-12.188A20 20 0 0 1 410.703 324H453.5V109h-225M193.5 109h-25v215h43.796a20 20 0 0 1 16.641 8.906l8.125 12.188A20 20 0 0 0 253.703 354H298.5M484.5 438h-457l-20-27v-27h497v27zM58.5 196.383V234h80V109h-80v52.383M58.5 264h80v60h-80zM258.5 324h106M228.5 204h20M228.5 174h20M278.5 204h20M278.5 174h20M358.5 204h35M256 438v-22M286 438v-22M316 438v-22M346 438v-22M376 438v-22M406 438v-22M436 438v-22M52 411h160M88.5 141.5h20M88.5 171.5h20M88.5 201.5h20" style="stroke-width:15;stroke-linecap:round;stroke-linejoin:round;stroke-miterlimit:10;" fill="none" stroke="#000000" stroke-width="15" stroke-linecap="round" stroke-linejoin="round" stroke-miterlimit="10" data-original="#000000"/>
    <path d="M198.5 264h225v30h-225zM198.5 139h225v95h-225z" style="stroke-width:15;stroke-linecap:round;stroke-linejoin:round;stroke-miterlimit:10;" fill="none" stroke="#000000" stroke-width="15" stroke-linecap="round" stroke-linejoin="round" stroke-miterlimit="10" data-original="#000000"/>
    <path d="M328.5 204v-30h65" style="stroke-width:15;stroke-linecap:round;stroke-linejoin:round;stroke-miterlimit:10;" fill="none" stroke="#000000" stroke-width="15" stroke-linecap="round" stroke-linejoin="round" stroke-miterlimit="10" data-original="#000000"/>
  </g>
</svg>
