<?xml version="1.0" encoding="UTF-8"?>
<svg xmlns="http://www.w3.org/2000/svg" xmlns:xlink="http://www.w3.org/1999/xlink" xmlns:svgjs="http://svgjs.com/svgjs" version="1.1" width="512" height="512" x="0" y="0" viewBox="0 0 682.667 682.667" style="enable-background:new 0 0 512 512" xml:space="preserve" class="">
  <g>
    <defs>
      <clipPath id="a">
        <path d="M0 512h512V0H0Z" fill="#000000" data-original="#000000" class=""/>
      </clipPath>
    </defs>
    <path d="M0 0h-84.729l-26.537-22.873h-94.775L-232.578 0H-497v-357.771h84.729l26.537 22.874h94.775l26.537-22.874H0Z" style="fill-opacity:1;fill-rule:nonzero;stroke:none" transform="matrix(1.33333 0 0 -1.33333 672.667 102.62)" fill="#bd00ff" data-original="#05fffc" class="" opacity="1"/>
    <path d="M0 0h30l26.537 22.874h-30z" style="fill-opacity:1;fill-rule:nonzero;stroke:none" transform="matrix(1.33333 0 0 -1.33333 82.972 579.648)" fill="#bd00ff" data-original="#13f0ed" class="" opacity="1"/>
    <path d="m0 0-26.537 22.874h-30L-30 0Z" style="fill-opacity:1;fill-rule:nonzero;stroke:none" transform="matrix(1.33333 0 0 -1.33333 397.945 133.117)" fill="#bd00ff" data-original="#13f0ed" class="" opacity="1"/>
    <path d="M474.5 77.264h30v357.771h-30z" style="fill-opacity:1;fill-rule:nonzero;stroke:none" transform="matrix(1.33333 0 0 -1.33333 0 682.667)" fill="#bd00ff" data-original="#13f0ed" class="" opacity="1"/>
    <path d="M468.67 113.303H267.373v119.251H468.67Z" style="fill-opacity:1;fill-rule:nonzero;stroke:none" transform="matrix(1.33333 0 0 -1.33333 0 682.667)" fill="#00ff9f" data-original="#a087d4" class="" opacity="1"/>
    <path d="M353.497 339.304H289.94v33.167h63.557z" style="fill-opacity:1;fill-rule:nonzero;stroke:none" transform="matrix(1.33333 0 0 -1.33333 0 682.667)" fill="#00ff9f" data-original="#ffffff" class="" opacity="1"/>
    <path d="M0 0h-29.504l-34.053 33.167H0Z" style="fill-opacity:1;fill-rule:nonzero;stroke:none" transform="matrix(1.33333 0 0 -1.33333 471.33 310.577)" fill="#00ff9f" data-original="#ffffff" class="" opacity="1"/>
    <g clip-path="url(#a)" transform="matrix(1.33333 0 0 -1.33333 0 682.667)">
      <path d="m0 0 16.397-.164C22.35-.223 27.77-3.619 30.446-8.966l8.664-17.312c4.373-8.738 16.645-9.103 21.524-.641L76.373.375c4.73 8.202 16.518 8.174 21.208-.051l17.008-29.823c4.504-7.896 15.677-8.316 20.754-.779l13.084 19.422c4.723 7.012 14.915 7.244 19.949.453l6.168-8.323a15.877 15.877 0 0 1 12.752-6.435h14.001v-49.446H0Z" style="fill-opacity:1;fill-rule:nonzero;stroke:none" transform="translate(267.373 187.91)" fill="#00b8ff" data-original="#6947b5" class="" opacity="1"/>
      <path d="M0 0h-84.729a7.501 7.501 0 0 1-4.896-1.819l-24.427-21.054h-89.203l-24.427 21.054A7.499 7.499 0 0 1-232.578 0H-497a7.5 7.5 0 0 1-7.5-7.5v-109.049a7.5 7.5 0 0 1 15 0V-15h254.136l24.427-21.054a7.494 7.494 0 0 1 4.896-1.819h94.775c1.798 0 3.536.645 4.897 1.819L-81.942-15H-7.5v-342.771h-254.136l-24.426 21.054a7.501 7.501 0 0 1-4.897 1.82h-94.775a7.497 7.497 0 0 1-4.897-1.82l-24.426-21.054H-489.5v201.261a7.5 7.5 0 0 1-15 0v-208.761a7.5 7.5 0 0 1 7.5-7.5h84.729c1.797 0 3.535.646 4.896 1.819l24.427 21.055h89.203l24.426-21.055a7.502 7.502 0 0 1 4.897-1.819H0a7.5 7.5 0 0 1 7.5 7.5V-7.5A7.5 7.5 0 0 1 0 0" style="fill-opacity:1;fill-rule:nonzero;stroke:none" transform="translate(504.5 442.535)" fill="#000000" data-original="#000000" class=""/>
      <path d="M0 0v-54.805c-4.127-.728-10.568-.185-13.228 3.401l-6.168 8.323c-7.896 10.654-24.752 10.32-32.195-.729l-13.083-19.422c-1.955-2.901-6.288-2.73-8.019.305l-17.008 29.822c-7.351 12.893-26.758 13.023-34.22.083l-15.739-27.295c-1.881-3.263-6.639-3.107-8.319.251l-8.666 17.314c-3.953 7.897-11.877 12.856-20.679 12.944l-8.973.089V0Zm-201.297 7.5v-119.251a7.5 7.5 0 0 1 7.5-7.5h141.625c9.697 0 9.697 15 0 15h-134.125v59.532l8.823-.088c3.152-.031 5.994-1.817 7.416-4.659l8.664-17.313c6.911-13.808 27.011-14.414 34.728-1.031l15.739 27.294c1.822 3.159 6.393 3.141 8.197-.02l17.007-29.822c7.189-12.603 25.402-13.257 33.49-1.255l13.084 19.423c1.814 2.693 5.768 2.786 7.703.177l6.168-8.323C-19.271-68.439-9.459-70.339 0-69.805v-34.446h-12.287c-9.697 0-9.697-15 0-15H7.5c4.143 0 7.5 3.357 7.5 7.5V7.5A7.5 7.5 0 0 1 7.5 15h-201.297a7.5 7.5 0 0 1-7.5-7.5" style="fill-opacity:1;fill-rule:nonzero;stroke:none" transform="translate(461.17 225.055)" fill="#000000" data-original="#000000" class=""/>
      <path d="M0 0a7.5 7.5 0 0 1-10.438-1.886c-4.785-6.895-7.314-14.995-7.314-23.426 0-22.609 18.31-41.002 40.816-41.002 22.506 0 40.815 18.393 40.815 41.002S45.57 15.69 23.064 15.69c-9.697 0-9.697-15 0-15 14.235 0 25.815-11.664 25.815-26.002s-11.58-26.002-25.815-26.002c-14.235 0-25.816 11.664-25.816 26.002 0 5.359 1.604 10.502 4.638 14.874A7.5 7.5 0 0 1 0 0" style="fill-opacity:1;fill-rule:nonzero;stroke:none" transform="translate(56.989 390.349)" fill="#000000" data-original="#000000" class=""/>
      <path d="M0 0c22.506 0 40.815 18.394 40.815 41.002 0 22.609-18.309 41.003-40.815 41.003-9.697 0-9.697-15 0-15 14.235 0 25.815-11.665 25.815-26.003C25.815 26.665 14.235 15 0 15c-14.235 0-25.816 11.665-25.816 26.002 0 9.698-15 9.698-15 0C-40.816 18.394-22.506 0 0 0" style="fill-opacity:1;fill-rule:nonzero;stroke:none" transform="translate(80.053 220.46)" fill="#000000" data-original="#000000" class=""/>
      <path d="M0 0c-10.303 0-19.607 6.154-23.704 15.679-3.831 8.908-17.61 2.982-13.779-5.927C-31.016-5.284-16.303-15 0-15c22.506 0 40.815 18.394 40.815 41.002 0 22.609-18.309 41.003-40.815 41.003-9.697 0-9.697-15 0-15 14.235 0 25.815-11.665 25.815-26.003C25.815 11.665 14.235 0 0 0" style="fill-opacity:1;fill-rule:nonzero;stroke:none" transform="translate(80.053 131.887)" fill="#000000" data-original="#000000" class=""/>
      <path d="M0 0h77.969a7.5 7.5 0 0 1 0 15H0A7.5 7.5 0 0 1 0 0" style="fill-opacity:1;fill-rule:nonzero;stroke:none" transform="translate(141.133 374.12)" fill="#000000" data-original="#000000" class=""/>
      <path d="M0 0h38.984a7.5 7.5 0 0 1 0 15H0A7.5 7.5 0 0 1 0 0" style="fill-opacity:1;fill-rule:nonzero;stroke:none" transform="translate(141.133 340.953)" fill="#000000" data-original="#000000" class=""/>
      <path d="M0 0h77.969a7.5 7.5 0 0 1 0 15H0A7.5 7.5 0 0 1 0 0" style="fill-opacity:1;fill-rule:nonzero;stroke:none" transform="translate(141.133 270.546)" fill="#000000" data-original="#000000" class=""/>
      <path d="M0 0h38.984a7.5 7.5 0 0 1 0 15H0A7.5 7.5 0 0 1 0 0" style="fill-opacity:1;fill-rule:nonzero;stroke:none" transform="translate(141.133 237.38)" fill="#000000" data-original="#000000" class=""/>
      <path d="M0 0h77.969a7.5 7.5 0 0 1 0 15H0A7.5 7.5 0 0 1 0 0" style="fill-opacity:1;fill-rule:nonzero;stroke:none" transform="translate(141.133 166.973)" fill="#000000" data-original="#000000" class=""/>
      <path d="M0 0h38.984a7.5 7.5 0 0 1 0 15H0A7.5 7.5 0 0 1 0 0" style="fill-opacity:1;fill-rule:nonzero;stroke:none" transform="translate(141.133 133.806)" fill="#000000" data-original="#000000" class=""/>
      <path d="M0 0v120.895a7.5 7.5 0 0 1-7.5 7.5 7.5 7.5 0 0 1-7.5-7.5V0c0-9.697 15-9.697 15 0" style="fill-opacity:1;fill-rule:nonzero;stroke:none" transform="translate(391.257 260.725)" fill="#000000" data-original="#000000" class=""/>
      <path d="M345.997 346.804H297.44v18.167h48.557zm7.5 33.166H289.94a7.5 7.5 0 0 1-7.5-7.5v-33.166a7.5 7.5 0 0 1 7.5-7.5h63.557a7.5 7.5 0 0 1 7.5 7.5v33.166a7.5 7.5 0 0 1-7.5 7.5" style="fill-opacity:1;fill-rule:nonzero;stroke:none" fill="#000000" data-original="#000000" class=""/>
      <path d="M0 0v-18.167h-18.955L-37.607 0Zm-61.29 2.127 34.053-33.166a7.502 7.502 0 0 1 5.233-2.128H7.5a7.5 7.5 0 0 1 7.5 7.5V7.5A7.5 7.5 0 0 1 7.5 15h-63.557A7.502 7.502 0 0 1-61.29 2.127" style="fill-opacity:1;fill-rule:nonzero;stroke:none" transform="translate(345.997 304.734)" fill="#000000" data-original="#000000" class=""/>
      <path d="M0 0a7.5 7.5 0 0 1-7.5-7.5v-86.654c0-1.982.785-3.884 2.182-5.289l34.049-34.241c6.843-6.878 17.472 3.705 10.637 10.578L7.5-91.06V-7.5A7.5 7.5 0 0 1 0 0" style="fill-opacity:1;fill-rule:nonzero;stroke:none" transform="translate(259.412 389.12)" fill="#000000" data-original="#000000" class=""/>
      <path d="M0 0c9.992 0 10.009 15 0 15-9.991 0-10.008-15 0-15" style="fill-opacity:1;fill-rule:nonzero;stroke:none" transform="translate(414.106 261.573)" fill="#000000" data-original="#000000" class=""/>
      <path d="M0 0c-9.991 0-10.008-15 0-15C9.992-15 10.009 0 0 0" style="fill-opacity:1;fill-rule:nonzero;stroke:none" transform="translate(414.106 302.623)" fill="#000000" data-original="#000000" class=""/>
      <path d="M0 0c9.991 0 10.008 15 0 15-9.992 0-10.009-15 0-15" style="fill-opacity:1;fill-rule:nonzero;stroke:none" transform="translate(441.661 261.573)" fill="#000000" data-original="#000000" class=""/>
      <path d="M0 0c9.991 0 10.008 15 0 15-9.992 0-10.009-15 0-15" style="fill-opacity:1;fill-rule:nonzero;stroke:none" transform="translate(441.661 287.623)" fill="#000000" data-original="#000000" class=""/>
      <path d="M0 0c9.991 0 10.008 15 0 15-9.992 0-10.009-15 0-15" style="fill-opacity:1;fill-rule:nonzero;stroke:none" transform="translate(441.661 313.672)" fill="#000000" data-original="#000000" class=""/>
      <path d="M0 0c9.991 0 10.008 15 0 15-9.992 0-10.009-15 0-15" style="fill-opacity:1;fill-rule:nonzero;stroke:none" transform="translate(441.661 339.722)" fill="#000000" data-original="#000000" class=""/>
      <path d="M0 0c-9.992 0-10.009-15 0-15C9.991-15 10.008 0 0 0" style="fill-opacity:1;fill-rule:nonzero;stroke:none" transform="translate(441.661 380.772)" fill="#000000" data-original="#000000" class=""/>
      <path d="M0 0c9.991 0 10.008 15 0 15-9.992 0-10.009-15 0-15" style="fill-opacity:1;fill-rule:nonzero;stroke:none" transform="translate(469.216 261.573)" fill="#000000" data-original="#000000" class=""/>
      <path d="M0 0c9.991 0 10.008 15 0 15-9.992 0-10.009-15 0-15" style="fill-opacity:1;fill-rule:nonzero;stroke:none" transform="translate(469.216 287.623)" fill="#000000" data-original="#000000" class=""/>
      <path d="M0 0c9.991 0 10.008 15 0 15-9.992 0-10.009-15 0-15" style="fill-opacity:1;fill-rule:nonzero;stroke:none" transform="translate(469.216 313.672)" fill="#000000" data-original="#000000" class=""/>
      <path d="M0 0c-9.992 0-10.009-15 0-15C9.991-15 10.008 0 0 0" style="fill-opacity:1;fill-rule:nonzero;stroke:none" transform="translate(469.216 354.722)" fill="#000000" data-original="#000000" class=""/>
      <path d="M0 0h65.964a7.5 7.5 0 0 1 0 15H0a7.5 7.5 0 0 1-7.5-7.5A7.5 7.5 0 0 1 0 0" style="fill-opacity:1;fill-rule:nonzero;stroke:none" transform="translate(311.728 433.254)" fill="#000000" data-original="#000000" class=""/>
      <path d="M0 0h-65.963a7.5 7.5 0 0 1 0-15H0A7.5 7.5 0 0 1 0 0" style="fill-opacity:1;fill-rule:nonzero;stroke:none" transform="translate(198.245 78.746)" fill="#000000" data-original="#000000" class=""/>
    </g>
  </g>
</svg>
