<?xml version="1.0" encoding="UTF-8"?>
<svg xmlns="http://www.w3.org/2000/svg" xmlns:xlink="http://www.w3.org/1999/xlink" xmlns:svgjs="http://svgjs.com/svgjs" version="1.1" width="512" height="512" x="0" y="0" viewBox="0 0 511.747 511.747" style="enable-background:new 0 0 512 512" xml:space="preserve" class="">
  <g>
    <path fill="#bd00ff" d="M480.466 497.327c-15.627-32.309 2.03-70.079 6.717-104.413 4.644-34.018-2.402-62.919-9.525-81.804-3.323-8.809 3.118-18.303 12.523-18.284.381.001.758-.003 1.132-.01 11.251-.224 16.99-13.473 9.855-22.185-50.277-61.388-54.341-194.688-127.137-241.005-62.017-39.458-117.016 7.877-117.016 7.877h-2.406s-54.998-47.335-117.015-7.877C64.798 75.943 60.735 209.244 10.457 270.631c-7.135 8.712-1.396 21.961 9.855 22.185.374.007.751.011 1.132.01 9.405-.019 15.846 9.475 12.523 18.284-7.124 18.884-14.169 47.786-9.525 81.804 4.687 34.334 22.344 72.104 6.717 104.413z" data-original="#6947b5" class="" opacity="1"/>
    <path fill="#ffd8bf" d="M304.849 106.503c-37.322 5.5-47.145 35.633-49.045 45.621-1.899-9.988-11.796-39.645-49.044-45.621-41.609-6.676-114.168 40.324-114.168 136.324V369.99s6.973 123.371 162.785 127.307v.03c.145-.003.283-.011.428-.015.145.003.283.012.428.015v-.03C412.045 493.36 419.018 369.99 419.018 369.99V242.827c0-96-68.867-143-114.169-136.324z" data-original="#ffd8bf" class=""/>
    <path fill="#ffcdad" d="M304.849 106.503a71.263 71.263 0 0 0-5.824 1.119c42.161 9.232 89.992 55.197 89.992 135.205V369.99s-6.538 115.557-148.213 126.56c4.708.366 9.56.62 14.572.747v.03c.145-.003.283-.011.428-.015.145.003.283.012.428.015v-.03C412.044 493.36 419.017 369.99 419.017 369.99V242.827c0-96-68.866-143-114.168-136.324z" data-original="#ffcdad"/>
    <path fill="#a087d4" d="M332.834 436.037c0-49.21-42.471-62.142-77.03-62.142h-.094c-34.56 0-77.03 12.933-77.03 62.142 0 0-70.912-12.818-86.5-65.686 3.933 83.447 86.904 126.976 163.624 126.976 76.828 0 159.931-43.657 163.641-127.337-15.369 53.174-86.611 66.047-86.611 66.047z" data-original="#a087d4" class=""/>
    <path fill="#9378cf" d="M376.067 419.942c-24.822 46.761-80.221 72.81-135.263 76.831 5.011.366 10.019.554 15 .554 76.828 0 159.931-43.657 163.641-127.337-6.95 24.048-25.329 39.853-43.378 49.952z" data-original="#9378cf" class=""/>
    <path fill="#00b8ff" d="M236.725 274.902c-1.147 32.724-43.56 76.96-79.05 65.826-30.124-9.451-41.728-45.296-34.947-70.028 4.998-18.227 27.788-34.222 62.065-34.222s52.594 19.535 51.932 38.424zM274.883 274.902c1.147 32.724 43.56 76.96 79.05 65.826 30.124-9.451 41.728-45.296 34.947-70.028-4.998-18.227-27.788-34.222-62.065-34.222s-52.594 19.535-51.932 38.424z" data-original="#ff6ef9" class="" opacity="1"/>
    <path d="M506.971 265.879c-50.527-64.262-54.741-196.842-128.915-242.58-38.187-24.298-86.099-20.83-122.243 5.642-36.166-26.488-84.039-29.95-122.244-5.643C59.409 69.015 55.166 201.642 4.654 265.879c-11.174 13.644-.913 35.096 16.818 34.448 4.639.771 6.465 3.483 5.477 8.137-7.237 19.187-14.836 49.589-9.938 85.465 1.339 9.807 3.701 19.899 5.986 29.66 5.954 25.432 11.577 49.453 1.41 70.473-4.223 8.73 9.279 15.259 13.504 6.531 12.479-25.8 5.978-53.569-.309-80.423-2.308-9.855-4.487-19.164-5.73-28.27-4.472-32.763 2.487-60.578 9.112-78.142 5.016-13.297-5.15-28.431-19.507-28.431-4.652-.645-9.506-4.71-5.218-9.943C67.33 213.565 71.645 80.673 141.62 35.954c33.023-21.012 77.99-18.519 108.097 7.234 2.901 2.497 9.288 2.497 12.189 0 30.02-25.831 75.138-28.204 108.097-7.234 69.975 44.72 74.289 177.608 125.361 239.429 3.655 4.462-.116 10.082-5.212 9.944-14.283 0-24.556 15.062-19.513 28.431 6.625 17.564 13.584 45.379 9.112 78.142-1.243 9.106-3.423 18.415-5.73 28.27-6.286 26.854-12.787 54.623-.309 80.423 4.116 8.509 17.716 2.177 13.504-6.531-10.167-21.02-4.544-45.042 1.41-70.473 12.128-43.421 8.257-83.992-3.952-115.125-.988-4.656.839-7.368 5.482-8.136 17.422-.149 28.39-20.316 16.815-34.449z" fill="#000000" data-original="#000000"/>
    <path d="M227.754 409.799c-9.697 0-9.697 15 0 15h56.101c9.697 0 9.697-15 0-15z" fill="#000000" data-original="#000000"/>
    <path d="M426.938 242.827c0-66.046-31.183-102.469-49.52-118.302-22.486-19.415-50.021-28.925-73.663-25.441-26.639 3.926-40.69 18.949-47.988 31.991-7.302-12.883-21.315-27.724-47.818-31.977-16.748-2.687-37.168 2.308-56.029 13.703-8.3 5.015-.543 17.851 7.758 12.839 15.87-9.589 32.603-13.866 45.895-11.731 34.686 5.565 41.792 33.978 42.864 39.617 1.509 7.933 13.226 7.932 14.736 0 1.088-5.721 8.266-34.518 42.771-39.603 19.386-2.861 42.441 5.35 61.673 21.955 16.396 14.157 43.902 46.876 43.902 106.949.004.234-.007 127.181.004 127.396-11.956 36.035-53.735 51.369-71.705 56.401-2.275-20.141-12.029-36.085-28.548-46.463-45.291-27.973-133.306-17.214-139.573 46.478-17.925-4.99-59.534-20.207-71.62-56.18.029-.111.011-127.392.015-127.631 0-44.845 16.419-74.444 30.192-91.378 6.118-7.523-5.518-16.988-11.637-9.465-15.308 18.82-33.556 51.592-33.556 100.842v127.877c1.933 41.028 21.498 75.814 57.34 100.597 30.815 21.306 72.139 33.526 113.374 33.526 25.877 0 52.042-4.786 75.667-13.84 9.055-3.47 3.687-17.479-5.367-14.007-74.086 28.581-180.016 10.018-217.012-66.788 18.372 17.008 43.637 28.772 68.253 33.225 5.246.294 8.19-2.166 8.834-7.38-1.431-58.498 78.418-66.76 117.109-43.175 14.628 9.191 22.045 23.716 22.045 43.175.644 5.214 3.589 7.674 8.834 7.38 24.627-4.448 50.061-16.306 68.417-33.371-10.438 23.292-27.747 39.265-42.92 49.576-8.02 5.45.412 17.857 8.432 12.406 36.648-24.905 56.996-60.075 58.841-101.706z" fill="#000000" data-original="#000000"/>
    <path d="M115.495 268.716c-7.957 29.023 6.486 68.674 39.935 79.168 17.635 5.531 36.353-.709 50.903-11.006 20.69-14.643 35.868-38.591 37.723-59.117 6.883-6.338 16.718-6.236 23.497 0 1.854 20.526 17.032 44.474 37.723 59.117 14.549 10.298 33.268 16.538 50.903 11.006 33.448-10.494 47.892-50.145 39.935-79.168-6.032-26.004-46.09-46.162-86.487-38.061-54.11-13.556-98.093-2.834-107.906-.053-40.413-7.973-80.237 12.241-86.226 38.114zm266.152 3.967c2.994 10.919 1.773 24.281-3.266 35.743-5.517 12.546-14.996 21.477-26.692 25.146-15.141 4.751-30.149-3.56-37.748-8.938-17.712-12.535-30.985-33.562-31.562-49.995-.78-22.301 26.741-30.661 44.436-30.661 32.265 0 51.042 14.88 54.832 28.705zm-96.498-31.56c-6.851 5.051-12.451 11.876-15.434 19.892-8.664-4.309-19.156-4.309-27.821 0-3.014-8.099-8.698-14.98-15.647-20.048 14.48-2.008 35.139-3.242 58.902.156zm-155.187 31.56c7.42-27.067 48.312-31.837 70.493-27.021 13.574 3.128 29.331 13.071 28.775 28.977-.576 16.434-13.85 37.46-31.562 49.995-23.535 16.658-52.428 11.109-64.439-16.208-5.04-11.462-6.261-24.824-3.267-35.743z" fill="#000000" data-original="#000000"/>
    <path d="M145.48 300.661a7.478 7.478 0 0 0 5.304-2.197l31-31c6.857-6.857-3.749-17.462-10.607-10.606l-31 31c-4.454 4.452-.994 12.803 5.303 12.803zM155.676 323.131c3.536 2.929 7.072 2.929 10.607 0l47.451-47.452c6.857-6.857-3.749-17.462-10.607-10.606l-47.451 47.452a7.5 7.5 0 0 0 0 10.606zM306.061 296.98a7.478 7.478 0 0 0 5.304-2.197l27.318-27.319c6.857-6.857-3.749-17.462-10.607-10.606l-27.318 27.319c-4.454 4.452-.994 12.803 5.303 12.803zM319.042 316.664c3.536 2.929 7.072 2.929 10.607 0l38.333-38.333c6.857-6.857-3.749-17.462-10.607-10.606l-38.333 38.333a7.5 7.5 0 0 0 0 10.606zM146.253 74.586c8.538-11.283 20.962-18.934 34.607-22.301 9.367-2.311 5.4-16.78-3.988-14.464-17.686 4.364-32.636 14.743-43.571 29.194-2.463 3.255-.49 8.356 2.691 10.261 3.819 2.289 7.829.523 10.261-2.69zM455.948 344.931c-3.713 0-7.943 3.448-7.5 7.5 1.123 10.28.672 20.733-.5 30.988-1.111 9.724-2.914 20.088-6.898 29.094-3.797 8.583 9.124 16.226 12.952 7.571 4.744-10.723 7.08-22.082 8.577-33.667 1.451-11.227 2.101-22.707.868-33.986-.439-4.026-3.131-7.5-7.499-7.5z" fill="#000000" data-original="#000000"/>
  </g>
</svg>
