<?xml version="1.0" encoding="UTF-8"?>
<svg xmlns="http://www.w3.org/2000/svg" xmlns:xlink="http://www.w3.org/1999/xlink" xmlns:svgjs="http://svgjs.com/svgjs" version="1.1" width="512" height="512" x="0" y="0" viewBox="0 0 512 512" style="enable-background:new 0 0 512 512" xml:space="preserve" class="">
  <g>
    <path d="M386 47H173.5V17.5c0-5.523 4.477-10 10-10H376c5.523 0 10 4.477 10 10V47z" style="" fill="#bd00ff" data-original="#73e6f9" opacity="1" class=""/>
    <path d="M136 7.5c-5.523 0-10 4.477-10 10V47h57.5V7.5H136z" style="" fill="#bd00ff" data-original="#51dae5" class="" opacity="1"/>
    <path d="M391 504.5h-87.5L296 498l-7.5 6.5h-65L216 498l-7.5 6.5h-25c-8.284 0-16.287-6.716-16.287-15v-437c0-8.284 8.003-15 16.287-15H391c8.284 0 15 6.716 15 15V272l-8 7.213 8 7.787v202.5c0 8.284-6.716 15-15 15z" style="" fill="#bd00ff" data-original="#a8ebff" class="" opacity="1"/>
    <path d="M121 37.5c-8.284 0-15 6.716-15 15V272l7 7.851-7 7.149v202.5c0 8.284 6.716 15 15 15h62.5v-186l-6-17.202 6-21.798v-33l-5-5.968.286-169.333L183.5 67.5v-30H121z" style="" fill="#bd00ff" data-original="#73e6f9" opacity="1" class=""/>
    <path d="M316 368c0 30.596-22.903 55.834-52.499 59.526-2.458.307-4.96-10.313-7.501-10.313s-5.043 10.62-7.501 10.313C218.903 423.834 196 398.596 196 368s22.903-55.834 52.499-59.526c2.458-.307 4.96 5.079 7.501 5.079s5.043-5.386 7.501-5.079C293.097 312.166 316 337.404 316 368z" style="" fill="#00ff9f" data-original="#e7edf3" class="" opacity="1"/>
    <circle cx="296" cy="263" r="15" style="" fill="#00ff9f" data-original="#f4f8f9" class="" opacity="1"/>
    <circle cx="216" cy="263" r="15" style="" fill="#00ff9f" data-original="#f4f8f9" class="" opacity="1"/>
    <circle cx="361" cy="408.5" r="15" style="" fill="#00ff9f" data-original="#f4f8f9" class="" opacity="1"/>
    <circle cx="151" cy="408.5" r="15" style="" fill="#00ff9f" data-original="#e7edf3" class="" opacity="1"/>
    <circle cx="256" cy="368" r="30" style="" fill="#00ff9f" data-original="#f4f8f9" class="" opacity="1"/>
    <path d="M373 187.5H183.5a3 3 0 0 1-3-3v-114a3 3 0 0 1 3-3H373a3 3 0 0 1 3 3v114a3 3 0 0 1-3 3z" style="" fill="#00ff9f" data-original="#f4f8f9" class="" opacity="1"/>
    <path d="M183.5 67.5H139a3 3 0 0 0-3 3v114a3 3 0 0 0 3 3h44.5v-120z" style="" fill="#00ff9f" data-original="#e7edf3" class="" opacity="1"/>
    <path d="M106 333V52.5c0-8.284 6.716-15 15-15h86.553M240.25 504.5H121c-8.284 0-15-6.716-15-15V368M242.553 37.5H391c8.284 0 15 6.716 15 15v437c0 8.284-6.716 15-15 15H275.25M126 37.5v-20c0-5.523 4.477-10 10-10h240c5.523 0 10 4.477 10 10v20" style="stroke-width:15;stroke-linecap:round;stroke-linejoin:round;stroke-miterlimit:10;" fill="none" stroke="#000000" stroke-width="15" stroke-linecap="round" stroke-linejoin="round" stroke-miterlimit="10" data-original="#000000"/>
    <path d="M136 67.5h240v120H136zM233.468 97.5H346M166 97.5h37.468M326 127.5h20M326 157.5h20M166 127.5h70.5M166 157.5h20M256 187.5v56M296 217.5v30M336 188.5v58M216 217.5v30M176 187.5v59M296 412.904V504.5M296 278.5v44.606M336 279.5v39M216 412.894V504.5M216 278.5v44.457M176 279.5v39" style="stroke-width:15;stroke-linecap:round;stroke-linejoin:round;stroke-miterlimit:10;" fill="none" stroke="#000000" stroke-width="15" stroke-linecap="round" stroke-linejoin="round" stroke-miterlimit="10" data-original="#000000"/>
    <circle cx="296" cy="263" r="15" style="stroke-width:15;stroke-linecap:round;stroke-linejoin:round;stroke-miterlimit:10;" fill="none" stroke="#000000" stroke-width="15" stroke-linecap="round" stroke-linejoin="round" stroke-miterlimit="10" data-original="#000000"/>
    <circle cx="216" cy="263" r="15" style="stroke-width:15;stroke-linecap:round;stroke-linejoin:round;stroke-miterlimit:10;" fill="none" stroke="#000000" stroke-width="15" stroke-linecap="round" stroke-linejoin="round" stroke-miterlimit="10" data-original="#000000"/>
    <path d="M336.5 246.5h9.5M336.5 279.5H406M166.5 246.5h9.5M106.5 279.5H176M313.747 384.343C306.631 409.537 283.472 428 256 428c-33.137 0-60-26.863-60-60s26.863-60 60-60c26.907 0 49.677 17.712 57.288 42.112" style="stroke-width:15;stroke-linecap:round;stroke-linejoin:round;stroke-miterlimit:10;" fill="none" stroke="#000000" stroke-width="15" stroke-linecap="round" stroke-linejoin="round" stroke-miterlimit="10" data-original="#000000"/>
    <circle cx="256" cy="368" r="30" style="stroke-width:15;stroke-linecap:round;stroke-linejoin:round;stroke-miterlimit:10;" fill="none" stroke="#000000" stroke-width="15" stroke-linecap="round" stroke-linejoin="round" stroke-miterlimit="10" data-original="#000000"/>
    <circle cx="361" cy="408.5" r="15" style="stroke-width:15;stroke-linecap:round;stroke-linejoin:round;stroke-miterlimit:10;" fill="none" stroke="#000000" stroke-width="15" stroke-linecap="round" stroke-linejoin="round" stroke-miterlimit="10" data-original="#000000"/>
    <circle cx="151" cy="408.5" r="15" style="stroke-width:15;stroke-linecap:round;stroke-linejoin:round;stroke-miterlimit:10;" fill="none" stroke="#000000" stroke-width="15" stroke-linecap="round" stroke-linejoin="round" stroke-miterlimit="10" data-original="#000000"/>
    <path d="M256 282.5v55M256 399.5v75M151 423.5v51M361 423.5v51M151 342.5v51M361 342.5v51" style="stroke-width:15;stroke-linecap:round;stroke-linejoin:round;stroke-miterlimit:10;" fill="none" stroke="#000000" stroke-width="15" stroke-linecap="round" stroke-linejoin="round" stroke-miterlimit="10" data-original="#000000"/>
  </g>
</svg>
