<?xml version="1.0" encoding="UTF-8"?>
<svg xmlns="http://www.w3.org/2000/svg" xmlns:xlink="http://www.w3.org/1999/xlink" xmlns:svgjs="http://svgjs.com/svgjs" version="1.1" width="512" height="512" x="0" y="0" viewBox="0 0 512 512" style="enable-background:new 0 0 512 512" xml:space="preserve" class="">
  <g>
    <path d="M504.5 500.25v-395c0-5.523-4.477-10-10-10h-50l-10.856 11.112H86.162L67.5 95.25h-50c-5.523 0-10 4.477-10 10v395a4 4 0 0 0 4 4h31l13.168-6.547 398.78.376 15.051 6.171h31a4 4 0 0 0 4.001-4z" style="" fill="#bd00ff" data-original="#948393" class="" opacity="1"/>
    <path d="M78.356 130.388H42.5a5 5 0 0 0-5 5v20a5 5 0 0 0 5 5h35.856v-30zM78.356 195.388H42.5a5 5 0 0 0-5 5v20a5 5 0 0 0 5 5h35.856v-30zM78.356 260.388H42.5a5 5 0 0 0-5 5v20a5 5 0 0 0 5 5h35.856v-30zM78.356 325.388H42.5a5 5 0 0 0-5 5v20a5 5 0 0 0 5 5h35.856v-30zM78.356 390.388H42.5a5 5 0 0 0-5 5v20a5 5 0 0 0 5 5h25l10.856-30zM433.644 130.388H469.5a5 5 0 0 1 5 5v20a5 5 0 0 1-5 5h-35.856v-30zM433.644 195.388H469.5a5 5 0 0 1 5 5v20a5 5 0 0 1-5 5h-35.856v-30zM433.644 260.388H469.5a5 5 0 0 1 5 5v20a5 5 0 0 1-5 5h-35.856v-30zM433.644 325.388H469.5a5 5 0 0 1 5 5v20a5 5 0 0 1-5 5h-35.856v-30zM433.644 390.388H469.5a5 5 0 0 1 5 5v20a5 5 0 0 1-5 5h-25l-10.856-30z" style="" fill="#00b8ff" data-original="#7c6c79" class="" opacity="1"/>
    <path d="M434.5 412.62V103.539l-10-8.289h-357v325.138H126l6.135-5.071 242.964-2.753L386 420.388h38.5z" style="" fill="#00ff9f" data-original="#be96f9" class="" opacity="1"/>
    <path d="M424.5 95.25h20v325.138h-20z" style="" fill="#00ff9f" data-original="#9d7ffa" class="" opacity="1"/>
    <path d="M469.5 504.25h-25l-10.103-15 10.103-15h25a5 5 0 0 1 5 5v20a5 5 0 0 1-5 5zM67.5 504.25h-25a5 5 0 0 1-5-5v-20a5 5 0 0 1 5-5h25l10.004 15-10.004 15z" style="" fill="#00b8ff" data-original="#7c6c79" class="" opacity="1"/>
    <path d="M67.5 504.25v-15l8.121-9.242 361.788-.376 1.129 17.694-14.038 6.924z" style="" fill="#00ff9f" data-original="#be96f9" class="" opacity="1"/>
    <path d="M444.5 474.25v30h-20v-8a7 7 0 0 0-7-7h-350v-15h377z" style="" fill="#00ff9f" data-original="#9d7ffa" class="" opacity="1"/>
    <path d="M324.84 320.388c0-16.016-8.548-25.892-24.565-25.892l-18.277-3.108H211c-16.016 0-29 12.984-29 29l69 5.873 73.84-5.873z" style="" fill="#00b8ff" data-original="#ffda45" class="" opacity="1"/>
    <path d="m330 320.388-12.642 5.873L305 320.388c0-16.02-12.98-29-29-29h25c16.02 0 29 12.98 29 29z" style="" fill="#00b8ff" data-original="#ffcb3d" class="" opacity="1"/>
    <path d="m379.052 415.767 1.129-40.124c0-4.485-1.507-8.839-4.28-12.364L350.44 328.99a9.999 9.999 0 0 0-7.86-3.818L330 320.388H165.857a9.999 9.999 0 0 0-7.86 3.818l-27.717 35.241a20.004 20.004 0 0 0-4.28 12.364v48.577h36.5l9.493-5.375 5.507 5.375H249l7.5-5.375 7.5 5.375h70.5l6.716-4.245 8.284 4.245H366l13.052-4.621z" style="" fill="#00b8ff" data-original="#7c6c79" class="" opacity="1"/>
    <path d="M386 371.808v48.58h-20v-38.4c0-4.63-1.36-9.16-3.91-13.02L330 320.388h16.14a9.99 9.99 0 0 1 7.86 3.82l27.72 35.24c2.77 3.52 4.28 7.88 4.28 12.36z" style="" fill="#00b8ff" data-original="#6a5d67" class="" opacity="1"/>
    <path d="M335.569 96.85c0 48.325-30.169 81.317-78.494 81.317-23.437 0-43.869-4.902-59.576-19.906-5.253-5.017-9.6-8.894-15.687-13.958-8.435-13.454-13.312-29.365-13.312-46.415 0-48.325 39.175-87.5 87.5-87.5 18.122 0 34.957 5.509 48.922 14.944 0 0 6.275 8.333 9.33 11.094 17.716 16.013 21.317 34.663 21.317 60.424z" style="" fill="#bd00ff" data-original="#52deff" class="" opacity="1"/>
    <path d="M343.5 97.888c0 48.32-39.18 87.5-87.5 87.5-31.27 0-58.72-16.41-74.18-41.09 14.01 9.55 30.95 15.13 49.18 15.13 48.33 0 87.5-39.18 87.5-87.5 0-17.04-4.87-32.95-13.31-46.4 23.12 15.74 38.31 42.28 38.31 72.36z" style="" fill="#bd00ff" data-original="#43caff" class="" opacity="1"/>
    <ellipse cx="256" cy="97.888" rx="40" ry="87.5" style="" fill="#bd00ff" data-original="#43caff" class="" opacity="1"/>
    <ellipse cx="256" cy="97.888" rx="87.5" ry="40" style="" fill="#bd00ff" data-original="#43caff" class="" opacity="1"/>
    <path d="M231 159.428c23.91 0 45.59-9.6 61.38-25.15-6.31 30.16-20.23 51.11-36.38 51.11-11.14 0-21.21-9.96-28.46-26.03 1.14.05 2.3.07 3.46.07zM343.5 97.888c0 16.15-20.95 30.07-51.11 36.38 16.12-15.87 26.11-37.94 26.11-62.34 0-.68-.01-1.35-.02-2.03 15.47 7.21 25.02 17.09 25.02 27.99zM296 97.888c0 12.98-1.29 25.3-3.62 36.38-11.08 2.33-23.4 3.62-36.38 3.62s-25.3-1.29-36.38-3.62c-2.33-11.08-3.62-23.4-3.62-36.38s1.29-25.3 3.62-36.38c11.08-2.33 23.4-3.62 36.38-3.62s25.3 1.29 36.38 3.62c2.33 11.08 3.62 23.4 3.62 36.38z" style="" fill="#bd00ff" data-original="#2cb7fa" class="" opacity="1"/>
    <circle cx="322" cy="364.888" r="14.5" style="" fill="#00b8ff" data-original="#aae76c" class="" opacity="1"/>
    <circle cx="190" cy="364.888" r="14.5" style="" fill="#00b8ff" data-original="#aae76c" class="" opacity="1"/>
    <circle cx="256.5" cy="364.888" r="14.5" style="" fill="#00b8ff" data-original="#aae76c" class="" opacity="1"/>
    <path d="M218.851 317.75h-52.994a9.999 9.999 0 0 0-7.86 3.818l-27.717 35.241a20.004 20.004 0 0 0-4.28 12.364v49.577M386 418.75v-49.577c0-4.485-1.507-8.839-4.28-12.364l-27.717-35.241a9.999 9.999 0 0 0-7.86-3.818h-92.292" style="stroke-width:15;stroke-linecap:round;stroke-linejoin:round;stroke-miterlimit:10;" fill="none" stroke="#000000" stroke-width="15" stroke-linecap="round" stroke-linejoin="round" stroke-miterlimit="10" data-original="#000000"/>
    <circle cx="322" cy="362.25" r="14.5" style="stroke-width:15;stroke-linecap:round;stroke-linejoin:round;stroke-miterlimit:10;" fill="none" stroke="#000000" stroke-width="15" stroke-linecap="round" stroke-linejoin="round" stroke-miterlimit="10" data-original="#000000"/>
    <circle cx="190" cy="362.25" r="14.5" style="stroke-width:15;stroke-linecap:round;stroke-linejoin:round;stroke-miterlimit:10;" fill="none" stroke="#000000" stroke-width="15" stroke-linecap="round" stroke-linejoin="round" stroke-miterlimit="10" data-original="#000000"/>
    <circle cx="256.5" cy="362.25" r="14.5" style="stroke-width:15;stroke-linecap:round;stroke-linejoin:round;stroke-miterlimit:10;" fill="none" stroke="#000000" stroke-width="15" stroke-linecap="round" stroke-linejoin="round" stroke-miterlimit="10" data-original="#000000"/>
    <path d="M182.807 374.838 170 397.25v22.5M329.194 374.839 342 397.25v22.5M256.5 419.75v-43M330 317.75h0c0-16.016-12.984-29-29-29h-90c-16.016 0-29 12.984-29 29v0M256 255.75v-27M289.5 255.75l19-50M222.5 255.75l-19-50M329.072 47.099C338.192 60.911 343.5 77.46 343.5 95.25c0 48.325-39.175 87.5-87.5 87.5s-87.5-39.175-87.5-87.5 39.175-87.5 87.5-87.5c18.275 0 35.242 5.603 49.277 15.184" style="stroke-width:15;stroke-linecap:round;stroke-linejoin:round;stroke-miterlimit:10;" fill="none" stroke="#000000" stroke-width="15" stroke-linecap="round" stroke-linejoin="round" stroke-miterlimit="10" data-original="#000000"/>
    <ellipse cx="256" cy="95.25" rx="40" ry="87.5" style="stroke-width:15;stroke-linecap:round;stroke-linejoin:round;stroke-miterlimit:10;" fill="none" stroke="#000000" stroke-width="15" stroke-linecap="round" stroke-linejoin="round" stroke-miterlimit="10" data-original="#000000"/>
    <ellipse cx="256" cy="95.25" rx="87.5" ry="40" style="stroke-width:15;stroke-linecap:round;stroke-linejoin:round;stroke-miterlimit:10;" fill="none" stroke="#000000" stroke-width="15" stroke-linecap="round" stroke-linejoin="round" stroke-miterlimit="10" data-original="#000000"/>
    <path d="M95.5 121.452v40M136.298 161.452h-5c-5.523 0-10-4.477-10-10v-20c0-5.523 4.477-10 10-10h5c5.523 0 10 4.477 10 10v20c0 5.523-4.477 10-10 10zM146.298 186.452v40M105.5 226.452h5c5.523 0 10-4.477 10-10v-20c0-5.523-4.477-10-10-10h-5c-5.523 0-10 4.477-10 10v20c0 5.523 4.477 10 10 10zM95.5 251.452v40M136.298 291.452h-5c-5.523 0-10-4.477-10-10v-20c0-5.523 4.477-10 10-10h5c5.523 0 10 4.477 10 10v20c0 5.523-4.477 10-10 10zM416.5 121.452v40M375.702 161.452h5c5.523 0 10-4.477 10-10v-20c0-5.523-4.477-10-10-10h-5c-5.523 0-10 4.477-10 10v20c0 5.523 4.477 10 10 10zM365.702 186.452v40M406.5 226.452h-5c-5.523 0-10-4.477-10-10v-20c0-5.523 4.477-10 10-10h5c5.523 0 10 4.477 10 10v20c0 5.523-4.477 10-10 10zM146.298 30.452v40M105.5 70.452h5c5.523 0 10-4.477 10-10v-20c0-5.523-4.477-10-10-10h-5c-5.523 0-10 4.477-10 10v20c0 5.523 4.477 10 10 10zM365.702 30.452v40M406.5 70.452h-5c-5.523 0-10-4.477-10-10v-20c0-5.523 4.477-10 10-10h5c5.523 0 10 4.477 10 10v20c0 5.523-4.477 10-10 10zM416.5 251.452v40M375.702 291.452h5c5.523 0 10-4.477 10-10v-20c0-5.523-4.477-10-10-10h-5c-5.523 0-10 4.477-10 10v20c0 5.523 4.477 10 10 10zM266 105.25l-20-20M266 85.25l-20 20M7.5 210.09v294.16M168.5 95.25h-151c-5.523 0-10 4.477-10 10v69.84" style="stroke-width:15;stroke-linecap:round;stroke-linejoin:round;stroke-miterlimit:10;" fill="none" stroke="#000000" stroke-width="15" stroke-linecap="round" stroke-linejoin="round" stroke-miterlimit="10" data-original="#000000"/>
    <path d="M504.5 268.25v-163c0-5.523-4.477-10-10-10h-151M504.5 504.25v-201M67.5 504.25v-30h377v30" style="stroke-width:15;stroke-linecap:round;stroke-linejoin:round;stroke-miterlimit:10;" fill="none" stroke="#000000" stroke-width="15" stroke-linecap="round" stroke-linejoin="round" stroke-miterlimit="10" data-original="#000000"/>
    <path d="M67.5 96.25v324h377v-324M66.5 160.25h-24a5 5 0 0 1-5-5v-20a5 5 0 0 1 5-5h24M66.5 225.25h-24a5 5 0 0 1-5-5v-20a5 5 0 0 1 5-5h24M66.5 290.25h-24a5 5 0 0 1-5-5v-20a5 5 0 0 1 5-5h24M66.5 355.25h-24a5 5 0 0 1-5-5v-20a5 5 0 0 1 5-5h24M445.5 390.25h24a5 5 0 0 1 5 5v20a5 5 0 0 1-5 5h-25M67.5 420.25h-25a5 5 0 0 1-5-5v-20a5 5 0 0 1 5-5h24M67.5 504.25h-25a5 5 0 0 1-5-5v-20a5 5 0 0 1 5-5h25M445.5 130.25h24a5 5 0 0 1 5 5v20a5 5 0 0 1-5 5h-24M445.5 195.25h24a5 5 0 0 1 5 5v20a5 5 0 0 1-5 5h-24M445.5 260.25h24a5 5 0 0 1 5 5v20a5 5 0 0 1-5 5h-24M445.5 325.25h24a5 5 0 0 1 5 5v20a5 5 0 0 1-5 5h-24M444.5 474.25h25a5 5 0 0 1 5 5v20a5 5 0 0 1-5 5h-25" style="stroke-width:15;stroke-linecap:round;stroke-linejoin:round;stroke-miterlimit:10;" fill="none" stroke="#000000" stroke-width="15" stroke-linecap="round" stroke-linejoin="round" stroke-miterlimit="10" data-original="#000000"/>
  </g>
</svg>
