<?xml version="1.0" encoding="UTF-8"?>
<svg xmlns="http://www.w3.org/2000/svg" xmlns:xlink="http://www.w3.org/1999/xlink" xmlns:svgjs="http://svgjs.com/svgjs" version="1.1" width="512" height="512" x="0" y="0" viewBox="0 0 512 512" style="enable-background:new 0 0 512 512" xml:space="preserve" class="">
  <g>
    <path d="M456 336.148V17.5c0-5.523-4.477-10-10-10H36c-5.523 0-10 4.477-10 10v127.648a9.998 9.998 0 0 0 4.453 8.32l21.094 14.063a10 10 0 0 1 4.453 8.32V494.5c0 5.523 4.477 10 10 10h410c5.523 0 10-4.477 10-10V366.852a9.998 9.998 0 0 0-4.453-8.32l-21.094-14.063a10 10 0 0 1-4.453-8.321z" style="" fill="#bd00ff" data-original="#f4f8f9" opacity="1" class=""/>
    <path d="M420 474.5H116l-15-7.398a6 6 0 0 1-6-6V48a6 6 0 0 1 6-6l15-4.5h98.648a9.998 9.998 0 0 1 8.32 4.453l14.063 21.094a10 10 0 0 0 8.32 4.453H420a6 6 0 0 1 6 6v395a6 6 0 0 1-6 6z" style="" fill="#00ff9f" data-original="#737380" class="" opacity="1"/>
    <path d="M116 37.5v437H92c-3.31 0-6-2.69-6-6v-425c0-3.31 2.69-6 6-6h24z" style="" fill="#00ff9f" data-original="#68687c" class="" opacity="1"/>
    <path d="M486 421v-54.148a9.998 9.998 0 0 0-4.453-8.32l-21.094-14.063a10 10 0 0 1-4.453-8.32V17.5c0-5.523-4.477-10-10-10H36c-5.523 0-10 4.477-10 10v127.648a9.998 9.998 0 0 0 4.453 8.32l21.094 14.063a10 10 0 0 1 4.453 8.32V256M56 291v203.5c0 5.523 4.477 10 10 10h410c5.523 0 10-4.477 10-10V456" style="stroke-width:15;stroke-linecap:round;stroke-linejoin:round;stroke-miterlimit:10;" fill="none" stroke="#000000" stroke-width="15" stroke-linecap="round" stroke-linejoin="round" stroke-miterlimit="10" data-original="#000000"/>
    <path d="M351 67.5h75v407H86v-437h128.648a9.998 9.998 0 0 1 8.32 4.453l14.063 21.094a10 10 0 0 0 8.32 4.453H316M136 116v30M166 116v30M196 131v15M226 116v30M346 131v15M376 116v30M166 131h60M346 131h30M136 186v30M166 186v30M196 201v15M226 186v30M346 201v15M376 186v30M316 186v30" style="stroke-width:15;stroke-linecap:round;stroke-linejoin:round;stroke-miterlimit:10;" fill="none" stroke="#000000" stroke-width="15" stroke-linecap="round" stroke-linejoin="round" stroke-miterlimit="10" data-original="#000000"/>
    <path d="M256 216v-30h30v30M166 201h30M136 271v15M166 256v30M286 271v15M316 256v30M346 256v30M376 256v30M256 271h60M346 256h30M136 326v30M166 326v30M226 356v-15h-30v15M346 341v15M376 326v30M346 341h30M136 411v15M166 396v30M226 426v-30h-30v30M346 396v30M376 396v30" style="stroke-width:15;stroke-linecap:round;stroke-linejoin:round;stroke-miterlimit:10;" fill="none" stroke="#000000" stroke-width="15" stroke-linecap="round" stroke-linejoin="round" stroke-miterlimit="10" data-original="#000000"/>
    <circle cx="301" cy="411" r="15" style="stroke-width:15;stroke-linecap:round;stroke-linejoin:round;stroke-miterlimit:10;" fill="none" stroke="#000000" stroke-width="15" stroke-linecap="round" stroke-linejoin="round" stroke-miterlimit="10" data-original="#000000"/>
    <path d="M136 411h30M426 37.5H316M56.5 104.75V132M56.5 37.5v37.25" style="stroke-width:15;stroke-linecap:round;stroke-linejoin:round;stroke-miterlimit:10;" fill="none" stroke="#000000" stroke-width="15" stroke-linecap="round" stroke-linejoin="round" stroke-miterlimit="10" data-original="#000000"/>
  </g>
</svg>
